<svg height="512" viewBox="0 0 512 512" width="512" xmlns="http://www.w3.org/2000/svg"><g><g fill="#57a4ff"><g><path d="m141.66 192-8.31 11.23a32.057 32.057 0 0 1 -8.17 36.77h-42.35a32 32 0 0 1 0-48z"/><path d="m429.2 240h-42.35a32.057 32.057 0 0 1 -8.17-36.77l-8.31-11.23h58.83a32.04 32.04 0 0 1 0 48z"/><path d="m82.83 240h42.35a32.035 32.035 0 0 1 -40.21 1.73c-.75-.55-1.46-1.13-2.14-1.73z"/><path d="m128 280h32v144h-32z"/><path d="m240 280h32v144h-32z"/><path d="m352 280h32v144h-32z"/><path d="m429.2 240c-.68.6-1.4 1.18-2.14 1.73a32.035 32.035 0 0 1 -40.21-1.73z"/><path d="m240 280h32v144h-32z"/><path d="m128 280h32v144h-32z"/><path d="m352 280h32v144h-32z"/></g><path d="m228.67 74.38-87.01 117.62-8.31 11.23a32 32 0 0 1 -48.38 38.5c-.75-.55-1.46-1.13-2.14-1.73a32 32 0 0 1 24.79-55.8l95.32-128.86a12.008 12.008 0 0 1 16.79-2.51l6.43 4.76a12.008 12.008 0 0 1 2.51 16.79z"/><circle cx="104" cy="216" r="8"/><path d="m429.2 240c-.68.6-1.4 1.18-2.14 1.73a32.006 32.006 0 0 1 -48.38-38.5l-8.31-11.23-87.02-117.62a12.008 12.008 0 0 1 2.51-16.79l6.44-4.76a11.994 11.994 0 0 1 16.78 2.51l95.32 128.86a32.009 32.009 0 0 1 24.8 55.8z"/><circle cx="408.024" cy="216" r="8"/></g><g fill="#004fac"><path d="m496 184h-64a40.235 40.235 0 0 0 -23.71-8l-92.78-125.41a19.994 19.994 0 0 0 -27.97-4.19l-6.43 4.76a19.994 19.994 0 0 0 -4.19 27.97l77.58 104.87h-196.97l77.57-104.87a20 20 0 0 0 -4.18-27.97l-6.43-4.76a20.027 20.027 0 0 0 -27.98 4.19l-92.77 125.41a40.242 40.242 0 0 0 -23.72 8h-64.02a8 8 0 0 0 -8 8v48a8 8 0 0 0 8 8h33.07l28.69 199.69a28.078 28.078 0 0 0 27.75 24.31h300.98a28.059 28.059 0 0 0 27.74-24.22l28.7-199.78h33.07a8 8 0 0 0 8-8v-48a8 8 0 0 0 -8-8zm-206.21-114.38a4 4 0 0 1 -.75-2.97 4.041 4.041 0 0 1 1.58-2.63l6.43-4.75a3.988 3.988 0 0 1 5.6.83l95.32 128.86a8.013 8.013 0 0 0 7.33 3.19 23.995 23.995 0 1 1 -19.29 14.27 8 8 0 0 0 -.9-7.95zm76.54 130.38 3.37 4.55a40.2 40.2 0 0 0 1.68 27.45h-230.74a40.2 40.2 0 0 0 1.69-27.45l3.36-4.55zm-281.62 1.73a24.061 24.061 0 0 1 22.01-9.58 8 8 0 0 0 7.33-3.19l95.33-128.86a3.993 3.993 0 0 1 5.59-.83l6.43 4.75a4.005 4.005 0 0 1 .84 5.6l-95.32 128.85a8 8 0 0 0 -.91 7.95 24 24 0 1 1 -41.3-4.69zm-60.71 30.27v-32h43.35a40.1 40.1 0 0 0 .01 32zm394.38 213.59a12.034 12.034 0 0 1 -11.89 10.41h-300.98a12.053 12.053 0 0 1 -11.9-10.5l-28.38-197.5h14.78c.07.05.13.11.2.16a40.073 40.073 0 0 0 47.78-.16h256.04a40.073 40.073 0 0 0 47.78.16c.07-.05.14-.11.21-.16h14.75zm69.62-213.59h-43.34a40.143 40.143 0 0 0 .02-32h43.32z"/><path d="m272 272h-32a8 8 0 0 0 -8 8v144a8 8 0 0 0 8 8h32a8 8 0 0 0 8-8v-144a8 8 0 0 0 -8-8zm-8 144h-16v-128h16z"/><path d="m160 272h-32a8 8 0 0 0 -8 8v144a8 8 0 0 0 8 8h32a8 8 0 0 0 8-8v-144a8 8 0 0 0 -8-8zm-8 144h-16v-128h16z"/><path d="m384 272h-32a8 8 0 0 0 -8 8v144a8 8 0 0 0 8 8h32a8 8 0 0 0 8-8v-144a8 8 0 0 0 -8-8zm-8 144h-16v-128h16z"/><path d="m99.242 222.431a8 8 0 1 0 -1.673-11.189 8 8 0 0 0 1.673 11.189z"/><path d="m412.782 222.431a8 8 0 1 0 -11.189-1.673 8 8 0 0 0 11.189 1.673z"/></g></g></svg>